<svg id="Capa_1" data-name="Capa 1" xmlns="http://www.w3.org/2000/svg" viewBox="0 0 200 200"><defs><style>.cls-1,.cls-2{fill:#99bedf;}.cls-2{opacity:0.5;}</style></defs><title>Exámenes de Laboratorio</title><path class="cls-1" d="M125.34,116.17c-.06,13.09,0,26.18-.21,39.28a24.84,24.84,0,0,1-19.49,24,25.1,25.1,0,0,1-28.31-13.84c-2.32-4.87-2.23-10.05-2.5-15.21.06-4.95.17-9.89.17-14.84q0-45.67,0-91.36c0-2.25-.35-3.78-2.53-5.11-3.79-2.33-5.17-7.15-3.87-11.47s4.81-7.38,9.19-7.41c14.86-.13,29.72-.32,44.56.09,5.2.14,7.93,3.26,9,7.71s-.1,8.6-3.72,11.12c-1.46,1-2.63,1.76-2.62,4,.11,24,.08,48,.09,72A8.58,8.58,0,0,0,125.34,116.17Zm-8.22-21.89a2.33,2.33,0,0,0,.24-.7c0-16.69,0-33.37.12-50.06,0-2.21-1.07-2.3-2.75-2.29-9.77.05-19.54.08-29.3,0-2.1,0-2.76.58-2.74,2.7.09,11.37.07,22.74,0,34.12,0,1.89.51,2.65,2.5,2.55a71.66,71.66,0,0,1,8.16,0,3.8,3.8,0,0,1-.15,7.6c-1.86,0-3.71,0-5.57,0-5.2,0-5.21,0-4.82,5.32a3.82,3.82,0,0,0,.21.71c-.07,4-.09,7.91-.21,11.86-.06,1.87.6,2.72,2.57,2.63,2.47-.11,4.94-.08,7.42,0,2.65,0,4.35,1.35,4.09,4.09s-2,3.82-4.64,3.72c-2.21-.08-4.44-.14-6.65-.27s-2.85.85-2.79,2.89c.1,3.09,0,6.18,0,9.27,0,8.7,0,8.7,8.94,8.28,2.82-.13,5.07.75,5.12,3.93s-2.18,3.72-4.82,3.81c-2.92.09-6.68-1.36-8.56.65s-.64,5.91-.65,9c0,11.56,7.81,18.77,19.37,17.95,7.43-.53,14.85-7.59,14.91-15C117.32,136.08,117.16,115.18,117.12,94.28Zm-16.69-66.5c-6.8,0-13.6,0-20.4,0-2.08,0-4,.48-4.07,2.73-.09,2.5,1.88,3.06,4.13,3.06q20-.06,40,0c2.11,0,4-.5,4.07-2.76.09-2.54-1.9-3.05-4.12-3C113.53,27.81,107,27.77,100.43,27.78Z"/><path class="cls-2" d="M117.12,94.28c0,20.9.2,41.8,0,62.69-.06,7.45-7.48,14.51-14.91,15-11.56.82-19.4-6.39-19.37-17.95,0-3.05-1.32-6.85.65-9s5.64-.56,8.56-.65c2.64-.09,4.87-.73,4.82-3.81s-2.3-4.06-5.12-3.93c-8.94.42-8.94.42-8.94-8.28,0-3.09.07-6.18,0-9.27-.06-2,.69-3,2.79-2.89s4.44.19,6.65.27c2.62.1,4.39-1.13,4.64-3.72s-1.44-4-4.09-4.09c-2.48,0-5-.08-7.42,0-2,.09-2.63-.76-2.57-2.63.12-3.95.14-7.91.21-11.86Z"/></svg>