<svg id="Capa_1" data-name="Capa 1" xmlns="http://www.w3.org/2000/svg" xmlns:xlink="http://www.w3.org/1999/xlink" viewBox="0 0 200 200"><defs><style>.cls-1{fill:none;}.cls-2{clip-path:url(#clip-path);}.cls-3{fill:#99bedf;}</style><clipPath id="clip-path"><rect class="cls-1" x="-938.5" y="-236.67" width="889.25" height="1186"/></clipPath></defs><title>Exámenes-Ocupacionales</title><g class="cls-2"><image width="2478" height="3078" transform="translate(-633.75 7.91) scale(0.3)" xlink:href="../../../MERCADEO%20E%20INNOVACION/Por%20si%20acaso%20-%20cosas%20que%20no%20uso/FOTOS_IMAGEN_SSO/EDITADAS/IMG_5722.png"/></g><path class="cls-3" d="M99.07,178.46c-.82-.69-1.69-1.34-2.45-2.1C91,170.81,85.51,165.21,79.9,159.69a4.85,4.85,0,0,1-1.49-4.59c1.88-13.21,3.64-26.44,5.45-39.67S87.49,89,89.31,75.77c.34-2.46.65-4.93,1-7.38a3.87,3.87,0,0,0-.76-3.18c-.86-1.09-1.57-2.29-2.44-3.61a21.88,21.88,0,0,0-2.66,9.23c0,.21,0,.42,0,.62-.06,2.13-.81,3.31-2.37,3.72s-2.65-.25-3.81-2q-4.92-7.35-9.82-14.72-7-10.53-14-21.06C52.87,35,53,34,55,32c3.51-3.52,7-7,10.55-10.54.76-.76,1.63-1.41,2.45-2.11h64c.85.74,1.76,1.42,2.56,2.21q5.35,5.31,10.66,10.66c1.71,1.72,1.82,2.94.49,5q-12.06,18.11-24.12,36.18c-1.09,1.64-2.34,2.23-3.74,1.85s-2.27-1.59-2.34-3.59a22.94,22.94,0,0,0-2.64-10c-1.11,1.67-2.2,3.18-3.12,4.77a3.06,3.06,0,0,0-.11,1.79Q111.25,80,112.89,91.8c.23,1.64.48,3.28.7,4.92a3.12,3.12,0,0,1-2.58,3.77,3,3,0,0,1-3.56-2.83c-1.16-8.25-2.28-16.5-3.42-24.76-.16-1.22-.35-2.45-.53-3.75h-7c-.38,2.74-.77,5.49-1.15,8.25l-5.46,39.84q-2.53,18.54-5.06,37.07a2.44,2.44,0,0,0,.42,1.82C90.07,161,95,165.9,100,170.9c.39-.36.77-.68,1.11-1,4.4-4.39,8.78-8.81,13.21-13.17a2.75,2.75,0,0,0,.91-2.59q-2-14-3.89-28c-.29-2.09.71-3.69,2.51-4,2-.28,3.32.84,3.63,3.09,1.43,10.2,2.87,20.4,4.18,30.61a4.38,4.38,0,0,1-1,3.21c-6,6.16-12.1,12.21-18.19,18.28a12.31,12.31,0,0,1-1.47,1.11ZM120.54,63.72c6.42-9.62,12.66-19,18.85-28.26l-8.72-8.7L106.11,46.4A29.7,29.7,0,0,1,120.54,63.72Zm-60-28.33,18.9,28.34A29.65,29.65,0,0,1,93.9,46.39L69.25,26.68Zm61.5-9.73H77.94L100,43.31ZM91,56.2c1.37,2.06,2.69,4.1,4.09,6.08a1.79,1.79,0,0,0,1.29.53c2.38.06,4.76,0,7.14,0a1.69,1.69,0,0,0,1.22-.38c1.45-2,2.82-4.16,4.21-6.24a22,22,0,0,0-8.15-5.3,2.42,2.42,0,0,0-1.48-.06A21.71,21.71,0,0,0,91,56.2Z"/><path class="cls-3" d="M115.53,111.3a3.1,3.1,0,1,1-3-3.07A3.12,3.12,0,0,1,115.53,111.3Z"/></svg>