<svg id="Capa_1" data-name="Capa 1" xmlns="http://www.w3.org/2000/svg" xmlns:xlink="http://www.w3.org/1999/xlink" viewBox="0 0 200 200"><defs><style>.cls-1,.cls-3{fill:none;}.cls-2{clip-path:url(#clip-path);}.cls-3{stroke:#99bedf;stroke-miterlimit:10;stroke-width:7.41px;}</style><clipPath id="clip-path"><rect class="cls-1" x="-939" y="-451" width="889.25" height="1186"/></clipPath></defs><title>mas</title><g class="cls-2"><image width="2478" height="3078" transform="translate(-634.26 -206.42) scale(0.3)" xlink:href="../../../MERCADEO%20E%20INNOVACION/Por%20si%20acaso%20-%20cosas%20que%20no%20uso/FOTOS_IMAGEN_SSO/EDITADAS/IMG_5722.png"/></g><path class="cls-3" d="M161.63,81.93H118.07V38.37A11.15,11.15,0,0,0,107,27.25H93.05A11.15,11.15,0,0,0,81.93,38.37V81.93H38.37A11.15,11.15,0,0,0,27.25,93.05V107a11.15,11.15,0,0,0,11.12,11.12H81.93v43.56a11.15,11.15,0,0,0,11.12,11.12H107a11.15,11.15,0,0,0,11.12-11.12V118.07h43.56A11.15,11.15,0,0,0,172.75,107V93.05A11.15,11.15,0,0,0,161.63,81.93Z"/></svg>