<svg id="Capa_1" data-name="Capa 1" xmlns="http://www.w3.org/2000/svg" viewBox="0 0 200 200"><defs><style>.cls-1{fill:#99bedf;}</style></defs><title>Paquetes de Exámenes</title><path class="cls-1" d="M88.72,19.79c3.22,1,5.79,2.8,7.1,6.07.12.29.62.49,1,.59,7.91,2.36,12.1,7.92,12.14,16.17,0,4,0,8,0,12.07a2,2,0,0,0,1.35,2.25c3,1.41,5.18,3.85,5.31,7.08.35,9,1.23,18-1.07,26.82-4.45,17-15.31,28-32.13,33-1.31.38-1.76.89-1.67,2.21a44.08,44.08,0,0,1,0,5c-.21,4.09-.7,8.16-.69,12.24,0,9.18,6.72,16.56,16,18,8.4,1.31,17.06-4.1,19.73-12.52a22.36,22.36,0,0,0,.94-6.62c.09-12.43,0-24.86.06-37.29,0-12.26,7.56-22.25,19-25.37,15.56-4.26,31.45,6.95,32.25,23.07.41,8.13.15,16.29.14,24.44a3.74,3.74,0,0,0,1.3,3.1,15.64,15.64,0,1,1-21.43.07A3.92,3.92,0,0,0,149.4,127c-.06-7.41,0-14.83,0-22.25,0-4.5-3.16-7.48-7.43-7.22a6.76,6.76,0,0,0-6.23,5.82,18.25,18.25,0,0,0-.11,2.34q0,18.26,0,36.52a38.57,38.57,0,0,1-2.43,14.11,3,3,0,0,1-3.27,2.14,2.91,2.91,0,0,1-2.78-2.52,4.59,4.59,0,0,1,.3-2.13,33.19,33.19,0,0,0,1.89-11.52q0-18.57,0-37.14c0-6.19,3-10.9,8.28-13,8.22-3.29,17.47,2.28,17.93,11.11.36,6.88.12,13.79.16,20.68v2h6.12c0-.45.09-.9.09-1.36,0-6.68.06-13.37,0-20.06a19.36,19.36,0,0,0-16.29-19.35c-10.77-2-21.68,6.42-22.38,17.36-.24,3.75-.11,7.52-.13,11.28,0,10.39.23,20.8-.2,31.18-.49,12.07-10.62,21.9-22.71,22.73a24.67,24.67,0,0,1-25.87-19.54,45.9,45.9,0,0,1-.58-5.75c-.08-1.19,0-2.38,0-3.67H67.54A35.92,35.92,0,0,0,69.45,154a31,31,0,0,0,39.22,18.27,7.14,7.14,0,0,1,2.12-.47,3,3,0,0,1,3,2.5,2.89,2.89,0,0,1-2,3.47c-3.77,1-7.57,2.21-11.42,2.42A37.13,37.13,0,0,1,61.17,143.3c-.09-6-.36-12-.47-18,0-1-.52-1.2-1.28-1.41-15.79-4.51-26.26-14.63-31.63-30.09a43.55,43.55,0,0,1-2.22-14.33q0-6.57,0-13.16a10.1,10.1,0,0,1,6-9.69A2.23,2.23,0,0,0,32.42,55c.08-4.13,0-8.26,0-12.38,0-8.25,4.23-13.81,12.14-16.17.36-.1.86-.3,1-.59,1.32-3.27,3.88-5.05,7.1-6.07h3.45c.42.17.84.36,1.28.51a9.39,9.39,0,0,1-3.49,18.27c-3.91-.23-6.58-2.36-8.26-5.78a9,9,0,0,0-6.89,8.82c-.11,4.54-.06,9.09,0,13.63a1.91,1.91,0,0,0,.83,1.41c4.15,2,6.06,5.39,6,9.95,0,2.4-.06,4.8,0,7.2.11,3.7-.07,7.46.55,11.08,2.08,12.22,13.74,21.22,26.07,20.44A24.94,24.94,0,0,0,95.65,81.94c.27-5.1.13-10.23.12-15.35,0-4.57,1.89-7.9,6-9.94a1.56,1.56,0,0,0,.82-1.1c0-5.06.11-10.14-.14-15.19a8.63,8.63,0,0,0-6.75-7.57c-.19.34-.38.71-.59,1.07a9.39,9.39,0,1,1-11-13.62c.39-.13.76-.3,1.14-.45ZM74.11,132.16a2.73,2.73,0,0,0,.13-.49c0-3.08,0-6.16,0-9.24,0-2.45.92-3.52,3.28-4,1-.2,1.94-.4,2.89-.64,15.73-4,27.67-17.91,28.8-34,.41-6,.13-12.12.08-18.17a3.53,3.53,0,0,0-7.06.1c-.06,4.59,0,9.19-.06,13.79a43.28,43.28,0,0,1-.54,6.22c-3.57,21.15-27.18,32.67-45.87,22.22C45,101.88,39.64,92.37,39.2,80.1c-.17-4.8,0-9.61-.07-14.42a3.54,3.54,0,0,0-3.54-3.46,3.5,3.5,0,0,0-3.52,3.31c0,6.42-.29,12.88.36,19.24,1.61,15.85,13.71,29.35,29.16,33.09,4.78,1.16,5.7.8,5.55,7.1-.06,2.38,0,4.76,0,7.2Zm94,9.31a9.28,9.28,0,1,0-9.17,9.33A9.24,9.24,0,0,0,168.06,141.47ZM57.48,29.19a3.08,3.08,0,1,0-3,3.12A3.1,3.1,0,0,0,57.48,29.19ZM87,26.08a3.12,3.12,0,1,0,3.07,3.07A3.08,3.08,0,0,0,87,26.08Z"/><path class="cls-1" d="M119.36,167.14a3.12,3.12,0,0,1,3.18-3.14,3.2,3.2,0,0,1,3,3.15,3.15,3.15,0,0,1-3.22,3.11A3.08,3.08,0,0,1,119.36,167.14Z"/><path class="cls-1" d="M158.83,144.67a3.19,3.19,0,0,1-3.25-3.11,3.2,3.2,0,1,1,6.39-.11A3.17,3.17,0,0,1,158.83,144.67Z"/></svg>