<svg id="Capa_1" data-name="Capa 1" xmlns="http://www.w3.org/2000/svg" viewBox="0 0 200 200"><defs><style>.cls-1{fill:none;stroke:#99bedf;stroke-miterlimit:10;stroke-width:4.55px;}.cls-2{fill:#99bedf;}</style></defs><title>Pruebas-Psicológicas</title><path class="cls-1" d="M71.49,99.39s5.76-.41,5.76,7,0,15.22,4.11,19.74,6.58,6.17,11.51,7.82a43.58,43.58,0,0,0,11.52,1.64v21.8s.41,5.34-9.46,5.34V164h27.14v-1.23s-9,.41-9.46-5.34,0-21.8,0-21.8a29.27,29.27,0,0,0,11.1-1.64c5.35-2.06,9-4.12,11.93-7.82s4.11-10.28,4.11-11.92v-9.46s.41-3.7,2.88-4.52a15.23,15.23,0,0,1,2.88-.83V98.16s-5.35-.41-8.64,2.06-5.75,5.34-5.75,10.69,0,6.58-2.47,11.92-6.17,10.28-16,9.46V106s.41-6.58,9.46-5.75V99H94.93v1.65c0-.41,9.46-1.24,9.46,5.34v26.32s-6.17.41-9.87-2-6.17-5.76-7.4-11.11-.41-9.87-2.47-14a12.48,12.48,0,0,0-8.22-6.58,11.51,11.51,0,0,0-4.94-.41Z"/><path class="cls-2" d="M116.69,18.32c.59,1.19,1.8.71,2.67.84A67.19,67.19,0,0,1,168,53.62a64,64,0,0,1,7.28,20.87A68.27,68.27,0,0,1,175,97.83a67.18,67.18,0,0,1-10.52,25.6,65.27,65.27,0,0,1-19.12,18.66,3,3,0,0,0-1.56,2.93c.06,10.2,0,20.4.08,30.6a8.21,8.21,0,0,1-1.31,4.23H75.05c-1.51-1.88-1.26-4.11-1.26-6.3,0-6.26,0-12.51,0-18.77,0-1.38-.4-1.8-1.79-1.79-8.77.06-17.55,0-26.33,0-3.21,0-4.1-.89-4.1-4.08,0-8.83,0-17.66,0-26.49,0-1.54-.46-2-2-1.93-4.2.09-8.41,0-12.61,0-2.72,0-3.86-1.66-2.76-4.16,3.09-7,6.25-14,9.39-21q4-9,8.06-18c.9-2,.9-4.19,1.37-6.28A65.89,65.89,0,0,1,56.66,43.21,67.49,67.49,0,0,1,99.5,19c.47-.06,1,0,1.1-.64Zm-86,96.9c4.32,0,8.37,0,12.41,0,2.94,0,3.85.92,3.85,3.87,0,9,0,18,0,27,0,1.27.36,1.56,1.58,1.55,9,0,18.08,0,27.12,0,2.74,0,3.58.84,3.58,3.57,0,7.2,0,14.4,0,21.6,0,1.3.18,1.77,1.67,1.77q28-.11,56,0c1.49,0,1.66-.48,1.66-1.77,0-10.14,0-20.29,0-30.43a3.57,3.57,0,0,1,1.92-3.49c1.27-.72,2.51-1.51,3.72-2.35a61.86,61.86,0,0,0,13.78-88.6A61.82,61.82,0,0,0,92,26.11a61.84,61.84,0,0,0-44,48.72,21,21,0,0,1-1.44,5.29c-3,6.57-6,13.18-8.93,19.78C35.3,104.91,33.05,109.92,30.68,115.22Z"/><path class="cls-2" d="M134.12,85.61a6.94,6.94,0,0,1-.79,0A13.6,13.6,0,0,0,124,88.07c-6.71,4.71-15.9,3.73-22-1.65a3.15,3.15,0,0,0-2.26-.82c-7.15,0-14.3.15-21.44-.09-9.41-.3-17-8.16-17.54-17.79A18.75,18.75,0,0,1,76.14,48.31a5.82,5.82,0,0,0,3.76-2.09,13.55,13.55,0,0,1,11-4.86,2.42,2.42,0,0,0,2.42-1.23,18.56,18.56,0,0,1,28.61-2.92,2.28,2.28,0,0,0,2.24.64A18.49,18.49,0,0,1,145.5,51.66a10.38,10.38,0,0,0,3.48,5.8c9.34,8.38,6.61,22.47-5.07,27.11a12.75,12.75,0,0,1-3,.82A47.83,47.83,0,0,1,134.12,85.61Zm6.17-32.26c-1-5.94-7.24-10.85-13.22-10.44-.78.06-1,.21-.67,1a17.48,17.48,0,0,1,1.27,6.3,2.79,2.79,0,0,1-2.51,3.09c-1.48.11-2.62-1-2.85-2.73a27.3,27.3,0,0,0-.51-3.26c-.78-3-.94-3-3.35-1-.2.16-.4.34-.61.5-1.47,1.11-2.9,1.08-3.93-.1s-.9-2.75.5-4c.92-.83,1.91-1.58,2.88-2.38-7.15-5.79-16.51-2.58-19.38,2.88.47.32,1,.63,1.43,1A13.72,13.72,0,0,1,104.46,51a2.6,2.6,0,0,1-1.36,3.3,2.58,2.58,0,0,1-3.4-1.07c-.27-.45-.46-1-.7-1.41a7.67,7.67,0,0,0-3.33-3.48c-.15,1.05-.24,2-.43,2.9a2.44,2.44,0,0,1-2.57,2.1,2.48,2.48,0,0,1-2.56-2.12A7.49,7.49,0,0,1,90.22,48c.24-1.29-.23-1.37-1.31-1.15-5.11,1-8.27,6-7.36,11.61.3,1.89-.42,3.27-1.9,3.63s-2.83-.58-3.39-2.47A15.82,15.82,0,0,1,76,53.92a13.17,13.17,0,0,0-10,11.33c-.64,8.5,5.11,14.84,13.69,15,5.31.08,10.62,0,15.93,0A2.72,2.72,0,0,0,97.11,80c-.17-.43-.35-.86-.51-1.29a18.7,18.7,0,0,1-1.21-6.31,2.73,2.73,0,0,1,2.5-2.93,2.7,2.7,0,0,1,2.79,2.43c.09.52.14,1,.18,1.57a13.45,13.45,0,0,0,15.47,11.92c6.48-1.17,10.77-6,11.35-12.86.16-2,1.28-3.18,2.85-3.06s2.61,1.43,2.51,3.4a17.38,17.38,0,0,1-1.4,6.27c-.38.84-.18,1.09.73,1.07,2.1-.06,4.21,0,6.31-.07a10.56,10.56,0,0,0,9.61-6.53c1.94-4.16.55-9.82-2.87-12a19.29,19.29,0,0,1-4.25,7.46c-1.39,1.48-2.87,1.76-4.12.72s-1.3-2.66.1-4.28a15.08,15.08,0,0,0,2.56-3.94c1-2.46,1-2.46-1.53-2.93a2.67,2.67,0,0,1,.23-5.32C139,53.31,139.66,53.35,140.29,53.35Z"/><path class="cls-2" d="M115.37,80.18c-5.47,0-9-3.34-9.16-7.64a2.64,2.64,0,1,1,5.23-.73,3.43,3.43,0,0,1,.11.46,2.6,2.6,0,0,0,2,2.49,2.74,2.74,0,0,0,2.89-1.16c1.33-1.6,2.79-1.9,4.06-.91s1.31,2.62,0,4.31A7.43,7.43,0,0,1,115.37,80.18Z"/><path class="cls-2" d="M79,74.83a8,8,0,0,1-7.75-7.77,2.68,2.68,0,0,1,2.29-2.91,2.56,2.56,0,0,1,2.92,2.23,3.39,3.39,0,0,0,3.23,3.22,2.49,2.49,0,0,1,2.21,2.92A2.67,2.67,0,0,1,79,74.83Z"/><path class="cls-2" d="M100.68,63.64c.07,1.73-.75,2.85-2.25,3.06a2.49,2.49,0,0,1-3-2.31,3.37,3.37,0,0,0-3.17-3.11,2.47,2.47,0,0,1-2.24-2.87,2.65,2.65,0,0,1,3-2.32A7.91,7.91,0,0,1,100.68,63.64Z"/><path class="cls-2" d="M120,56.09a8.06,8.06,0,0,1,7.65,7.74,2.69,2.69,0,0,1-2.34,2.87,2.48,2.48,0,0,1-2.93-2.17,3.34,3.34,0,0,0-3.05-3.22A2.52,2.52,0,0,1,117,58.22,2.64,2.64,0,0,1,120,56.09Z"/></svg>