<svg id="Capa_1" data-name="Capa 1" xmlns="http://www.w3.org/2000/svg" viewBox="0 0 200 200"><defs><style>.cls-1{fill:#99bedf;}</style></defs><title>Pruebas Covid-19</title><path class="cls-1" d="M110.16,42.78a22.78,22.78,0,0,1-3.81-.81,5.36,5.36,0,0,1-3.45-5.28c-.05-3.46,0-6.92,0-10.39,0-1.56.6-2.8,2.28-2.77s2.17,1.31,2.15,2.86c0,3.19,0,6.39,0,9.58,0,1.6.63,2.14,2.19,2.13q22.1,0,44.2,0c1.72,0,2.28-.63,2.23-2.28-.08-3-.11-6,0-9,.07-1.89-.65-2.46-2.49-2.45-12,.06-24,0-36,0a4.85,4.85,0,0,1-2.38-.26,3,3,0,0,1-1.43-2.09c0-.69,1-1.43,1.66-1.94.37-.26,1.06-.1,1.6-.1q18.23,0,36.46,0c5.07,0,7,1.94,7,7v8.75c0,4.43-1.87,6.39-6.37,6.69-.2,0-.39.08-.88.19v2.54q0,12.72,0,25.46c0,.61.2,1.39-.1,1.8-.53.73-1.32,1.64-2.08,1.72s-1.58-.82-2-1.52a4.59,4.59,0,0,1-.17-2.19q0-12.52,0-25.06V42.67H133.88c0,.66-.09,1.38-.09,2.09q0,44.52,0,89c0,1.4.19,2.28,1.66,3a7.67,7.67,0,0,1,4.41,7.25q.1,6.21,0,12.43a8.2,8.2,0,0,1-7.4,8.1c-1.49.18-2.67-.28-2.93-1.8s.68-2.27,2.21-2.52c2.66-.44,3.73-1.78,3.75-4.47,0-3.73,0-7.47,0-11.2,0-2.65-1.51-4.38-3.75-4.42s-4,1.73-4,4.42c0,3.73,0,7.47,0,11.2,0,1.5-.49,2.66-2.06,2.74s-2.34-1.14-2.35-2.69c0-3.94-.06-7.88,0-11.81a7.85,7.85,0,0,1,4.61-7.35,2.17,2.17,0,0,0,1.44-2.29q0-45,0-90c0-.53-.07-1.06-.12-1.69H114.67c0,.74-.11,1.4-.11,2.06q0,56.73,0,113.46c0,9.8,7.48,17.44,16.94,17.41,9.7,0,17.12-7.56,17.13-17.44q0-36.26,0-72.52c0-.13,0-.27,0-.4,0-1.58.15-3.21,2.21-3.22S153,83.53,153,85.14c0,24.37.05,48.75,0,73.13a21.38,21.38,0,0,1-41.61,7.21,24.26,24.26,0,0,1-1.18-7.58q-.1-56.33,0-112.65Z"/><path class="cls-1" d="M66.82,81.84l9.08-8.93.78.65c-.42-.77-.88-1.52-1.24-2.31-.94-2.1-2.12-3.32-4.83-3.2-3.26.14-6.09-2.7-6.85-6a8,8,0,0,1,3.67-8.77,8.11,8.11,0,0,1,9.46.91c2.56,2.31,3.76,6.26,1.93,9-1.6,2.45-.82,4.06.46,6,.45.67.84,1.38,1.15,1.88L93.1,67.71A46.6,46.6,0,0,0,93,62.34c-.06-.56-1-1.13-1.6-1.51A8,8,0,0,1,93.78,46a8,8,0,0,1,8.29,3.52,7.87,7.87,0,0,1-2.6,11.15c-1.59.85-2.15,1.76-2,3.45a36.9,36.9,0,0,1,0,4c1.4.23,2.64.48,3.9.61,1.8.18,3,.8,2.52,2.91a13.25,13.25,0,0,0-.1,2C92.63,70.94,82.71,73,74.57,81.33a27.52,27.52,0,0,0-8.12,20.44,28,28,0,0,0,11.88,23c7.64,5.65,16.23,6.73,25.31,4.47.91,4.43.91,4.43-6.1,5.53,0,1.88-.11,3.83.07,5.75,0,.5.91,1,1.5,1.36a8,8,0,0,1-6.83,14.53,7.8,7.8,0,0,1-4.34-10.28,11.78,11.78,0,0,1,3.85-4.23,2.49,2.49,0,0,0,1.35-2.37c-.06-1.54,0-3.1,0-4.44l-12.73-3.4a48.92,48.92,0,0,0-2.49,4.48,2.82,2.82,0,0,0,.44,2.1,8,8,0,1,1-14,7.9c-2.53-5,1-11.39,6.58-11.46,2.19,0,3.37-.65,4.15-2.57a25.54,25.54,0,0,1,1.63-2.88c-1.67-1.47-3.36-2.81-4.88-4.32S69,121.8,67.5,120a43.6,43.6,0,0,0-4.75,2.82c-.51.37-.58,1.52-.6,2.32a8,8,0,1,1-13.53-5.81,7.6,7.6,0,0,1,9.2-1.19,3.28,3.28,0,0,0,4.33-.11,28.08,28.08,0,0,1,2.91-1.72L61.63,103.6a47.94,47.94,0,0,0-5.18.07c-.58.06-1.24.85-1.59,1.46a8,8,0,1,1-9.45-11.4,7.78,7.78,0,0,1,9.33,3.88,2.51,2.51,0,0,0,2.83,1.62c1.41-.09,2.83,0,4.07,0l3.42-12.72A40.51,40.51,0,0,0,60.6,84a3.19,3.19,0,0,0-2.3.54,8,8,0,0,1-8.79-13.43,7.57,7.57,0,0,1,7.91-.76C60.24,71.6,62.1,73.87,62,77c-.08,2.36.92,3.43,2.77,4.28.92.42,1.77,1,2.66,1.48Zm-12.77,47a3.61,3.61,0,0,0,3.68-3.53,3.6,3.6,0,1,0-7.19-.17A3.62,3.62,0,0,0,54.05,128.86ZM75.17,60.21a3.63,3.63,0,0,0-3.76-3.66,3.73,3.73,0,0,0-3.53,3.72,3.64,3.64,0,0,0,3.69,3.53A3.59,3.59,0,0,0,75.17,60.21Zm0,82.46A3.56,3.56,0,0,0,71.64,139a3.6,3.6,0,0,0-3.76,3.44,3.69,3.69,0,0,0,3.46,3.77A3.6,3.6,0,0,0,75.17,142.67ZM99,149a3.65,3.65,0,0,0-3.66-3.61A3.58,3.58,0,0,0,91.75,149a3.52,3.52,0,0,0,3.63,3.57A3.58,3.58,0,0,0,99,149ZM54.05,74a3.66,3.66,0,1,0,3.69,3.58A3.63,3.63,0,0,0,54.05,74ZM47.8,105a3.64,3.64,0,0,0,3.63-3.63,3.71,3.71,0,0,0-3.72-3.57,3.6,3.6,0,1,0,.09,7.2ZM99,53.73a3.61,3.61,0,1,0-7.21.17A3.61,3.61,0,1,0,99,53.73Z"/><path class="cls-1" d="M87.35,85.82a8,8,0,1,1,8,8A8,8,0,0,1,87.35,85.82Zm11.59-.06a3.6,3.6,0,1,0-7.2.06,3.6,3.6,0,1,0,7.2-.06Z"/><path class="cls-1" d="M83.3,99a8,8,0,1,1-8.12,7.92A8.06,8.06,0,0,1,83.3,99ZM86.89,107a3.77,3.77,0,0,0-3.68-3.59A3.66,3.66,0,0,0,79.6,107a3.58,3.58,0,0,0,3.74,3.64A3.66,3.66,0,0,0,86.89,107Z"/></svg>