<svg id="Capa_1" data-name="Capa 1" xmlns="http://www.w3.org/2000/svg" viewBox="0 0 200 200"><defs><style>.cls-1{fill:#fff;}.cls-2{fill:#99bedf;}</style></defs><title>Salud Visual</title><path class="cls-1" d="M67.28,81.77c-7.84-.46-19.68-.23-24.39,2.88s-3,12.56-2,16.94,2.93,11.65,7,14c4.59,2.62,13.69,4,21.29,3.11s12.68-3.69,15.7-9.1c2.44-4.39,6-17.18,3.62-21.56S73.2,82.11,67.28,81.77Z"/><ellipse class="cls-1" cx="35.93" cy="84.88" rx="4.06" ry="1.23"/><path class="cls-2" d="M113.4,80.73c-4.21,1.32-9.17,3.2-13.4,3.2s-9.19-1.88-13.4-3.2c-11.35-3.58-40-5.88-58.08-.35L29.07,90a3.78,3.78,0,0,1,4.37,2.77c1.09,3.46,3.62,17.71,8.23,23.28,5.73,6.92,18.07,7.18,26.42,6.84,11.23-.46,18.59-5.23,21.73-13.29s4.91-15,6.92-17.18a4.82,4.82,0,0,1,6.52,0c2,2.19,3.78,9.1,6.92,17.17s10.5,12.84,21.74,13.3c8.34.34,20.68.07,26.41-6.84,4.62-5.57,7.14-19.83,8.23-23.29a3.78,3.78,0,0,1,4.37-2.77l.55-9.56C153.37,74.84,124.75,77.15,113.4,80.73ZM31.86,84.88c0-.68,1.82-1.23,4.07-1.23S40,84.2,40,84.88s-1.82,1.23-4.06,1.23S31.86,85.56,31.86,84.88Zm52.93,24.67c-3,5.41-8.09,8.18-15.7,9.1s-16.7-.49-21.29-3.11c-4-2.3-6-9.57-7-14s-2.66-13.83,2-16.94,16.55-3.34,24.39-2.88C73.2,82.11,86,83.61,88.41,88S87.23,105.16,84.79,109.55Zm74.37-8c-1,4.38-2.92,11.65-7,14-4.59,2.61-13.68,4-21.29,3.11s-12.68-3.69-15.7-9.11c-2.44-4.38-6-17.17-3.62-21.55s15.21-5.88,21.13-6.23c7.84-.46,19.68-.23,24.39,2.88S160.13,97.21,159.16,101.59Zm4.91-15.49c-2.24,0-4.06-.55-4.06-1.23s1.82-1.23,4.06-1.23,4.07.55,4.07,1.23S166.32,86.1,164.07,86.1Z"/><path class="cls-1" d="M157.11,84.64c-4.71-3.11-16.55-3.34-24.39-2.88-5.92.35-18.71,1.85-21.13,6.23s1.18,17.17,3.62,21.55c3,5.42,8.09,8.19,15.7,9.11s16.7-.5,21.29-3.11c4-2.3,6-9.57,7-14S161.82,87.75,157.11,84.64Z"/><ellipse class="cls-1" cx="164.07" cy="84.87" rx="4.06" ry="1.23"/></svg>