<svg id="Capa_1" data-name="Capa 1" xmlns="http://www.w3.org/2000/svg" viewBox="0 0 200 200"><defs><style>.cls-1{fill:#99bedf;}</style></defs><title>Vacunación</title><path class="cls-1" d="M22.62,179.46c-2.79-1.52-3.14-3.84-.88-6.1q12.93-12.95,25.88-25.87a10.08,10.08,0,0,1,1.39-1l-.65-.2a58.66,58.66,0,0,1-1.13-6.64,9.71,9.71,0,0,1,2.44-6.73c.58-.73,1.25-1.38,1.9-2a38.3,38.3,0,0,0,4.13-4.23c1.25-1.75-.14-3.75-.1-5.67a23.78,23.78,0,0,1,7.24-17Q85.06,81.8,107.23,59.6c2.94-2.94,5.89-5.85,9-9-1.4-1.33-2.73-2.55-4-3.83-1.5-1.51-1.62-3.39-.37-4.7s3.22-1.28,4.8.29c4,4,7.93,7.92,11.9,11.88.4.4.81.78,1.17,1.12l13.81-13.84c-1.2-1.15-2.52-2.37-3.79-3.64-4.23-4.22-4.23-9,.06-13.19a19,19,0,0,1,3.79-3.16A7.77,7.77,0,0,1,153,22.8q12.3,12.15,24.45,24.45a7.48,7.48,0,0,1,1.16,9.34,23,23,0,0,1-6,6c-3,2-6.91,1.22-9.58-1.37-1.52-1.47-2.93-3.06-4.32-4.53L144.84,70.57l8.49,8.48c1.36,1.36,2.75,2.68,4.06,4.09a3.07,3.07,0,0,1,0,4.35,3,3,0,0,1-4.45,0c-1.39-1.32-2.66-2.77-4.5-4.71a9.73,9.73,0,0,1-1.08,1.85q-25.74,25.8-51.51,51.57c-5.78,5.82-12.6,8.34-20.74,7.34a2,2,0,0,0-1.45.52c-1.63,1.53-3.18,3.14-4.76,4.71-4.76,4.76-9.82,5.44-15.76,2-.37.37-.79.75-1.18,1.14q-12.78,12.78-25.57,25.54a22.42,22.42,0,0,1-2.56,2Zm90.58-69.63,3.73-3.63L93.28,82.51a1,1,0,0,0-.26.19c-8.81,8.81-17.68,17.56-26.4,26.45a16.5,16.5,0,0,0-2.89,19.17,16.81,16.81,0,0,0,17.33,9,14.76,14.76,0,0,0,7.42-3.05c-.48-.5-.86-.92-1.26-1.31-2.56-2.58-5.15-5.13-7.69-7.72a3.11,3.11,0,0,1-.52-3.86A2.86,2.86,0,0,1,82.34,120a5.18,5.18,0,0,1,2,1.31c2.92,2.86,5.79,5.78,8.56,8.55l5.66-5.57c-.3-.32-.64-.7-1-1.06-1.61-1.62-3.27-3.2-4.82-4.87a3,3,0,0,1,.9-5,3.1,3.1,0,0,1,3.68.82l5.46,5.65,5.88-5.88a12.81,12.81,0,0,1-1.32-1q-3.87-3.84-7.7-7.72c-.89-.9-1.47-2.1-.77-3.24a4.24,4.24,0,0,1,2.43-2,4.48,4.48,0,0,1,3.1,1.26C107.44,103.94,110.28,106.9,113.2,109.83Zm7.53-54.24L98.34,78l23.2,23.18,4.58-4.51c-2.89-2.88-5.88-5.83-8.83-8.82-1.51-1.54-1.53-3.37-.15-4.68s3.1-1.17,4.57.26c2.12,2.07,4.22,4.15,6.27,6.28.89.92,1.65,2,2.24,2.7l5-4.83c-1.41-1.38-2.91-2.82-4.37-4.29-1.63-1.66-1.77-3.42-.42-4.8s3.24-1.23,4.8.35,2.91,3.07,4.2,4.44l4.6-4.38C136.22,71.09,128.41,63.28,120.73,55.59Zm26.52-29.08c-1,.88-2,1.66-2.9,2.54-2,1.92-2,2.65,0,4.6q10.56,10.58,21.14,21.14c3.4,3.41,3.62,3.4,6.93-.14,1.26-1.35,1.3-2.31,0-3.62Q160.8,39.39,149.16,27.8A14.38,14.38,0,0,0,147.25,26.51Zm6.4,25.81-5.57-5.56L134.77,59.9l5.63,5.67ZM58.8,132.4c-1.16,1.2-2.19,2.28-3.24,3.34a6.18,6.18,0,0,0,3,10.66,5.6,5.6,0,0,0,4-.5,47.22,47.22,0,0,0,5.34-4.8A24.41,24.41,0,0,1,58.8,132.4Z"/><path class="cls-1" d="M86.17,110.37a3.35,3.35,0,0,1-3.39-3.16,3.14,3.14,0,0,1,3-3.15,3.33,3.33,0,0,1,3.46,3.24A3.09,3.09,0,0,1,86.17,110.37Z"/></svg>