<svg id="Capa_1" data-name="Capa 1" xmlns="http://www.w3.org/2000/svg" viewBox="0 0 150 150"><defs><style>.cls-1{fill:#00519d;}</style></defs><path class="cls-1" d="M103.35,72.58A14.92,14.92,0,1,0,118.27,87.5,14.93,14.93,0,0,0,103.35,72.58Zm0,19.89a5,5,0,1,1,5-5A5,5,0,0,1,103.35,92.47Zm0-39.77A34.35,34.35,0,0,0,69,87v.9c0,9.51,5.35,20.47,15.9,32.57a135.87,135.87,0,0,0,15.29,14.94l3.13,2.52,3.12-2.52a135.87,135.87,0,0,0,15.29-14.94c10.55-12.1,15.9-23.06,15.9-32.57V87A34.34,34.34,0,0,0,103.35,52.7Zm24.36,35.2c0,12.69-15.46,29.15-24.35,37.09a130.69,130.69,0,0,1-10.94-11.06C83.63,103.84,79,94.84,79,87.9V87a24.37,24.37,0,0,1,48.73,0v.9ZM81.66,138h-44a14.92,14.92,0,0,1-14.92-14.92V68.34l-2.21,1.91a5,5,0,0,1-7-.49h0a5,5,0,0,1,.49-7L71.32,13a4.11,4.11,0,0,1,5.37,0L111.9,43.59a44.57,44.57,0,0,0-14.52-.43,2.18,2.18,0,0,1-1.73-.51L75.46,25.12a2.21,2.21,0,0,0-2.91,0L32.73,59.7v63.37a5,5,0,0,0,5,5H77.19a2.64,2.64,0,0,1,1.94.87c1.51,1.67,3,3.23,4.4,4.65A2.6,2.6,0,0,1,81.66,138Z"/></svg>