<?xml version="1.0" encoding="utf-8"?>
<!-- Generator: Adobe Illustrator 22.0.0, SVG Export Plug-In . SVG Version: 6.00 Build 0)  -->
<svg version="1.1" id="Capa_1" xmlns="http://www.w3.org/2000/svg" xmlns:xlink="http://www.w3.org/1999/xlink" x="0px" y="0px"
	 viewBox="0 0 121.5 121.5" style="enable-background:new 0 0 121.5 121.5;" xml:space="preserve">
<style type="text/css">
	.st0{fill:#17529B;}
	.st1{fill:#FFFFFF;}
	.st2{fill:none;stroke:#17529B;stroke-width:3;stroke-miterlimit:10;}
	.st3{opacity:0.5;}
	.st4{fill:#0B195D;stroke:#FFFFFF;stroke-miterlimit:10;}
	.st5{fill:#17529B;stroke:#FFFFFF;stroke-miterlimit:10;}
	.st6{fill:none;stroke:#FFFFFF;stroke-miterlimit:10;}
	.st7{clip-path:url(#SVGID_4_);fill-rule:evenodd;clip-rule:evenodd;fill:#195388;}
	.st8{clip-path:url(#SVGID_4_);fill-rule:evenodd;clip-rule:evenodd;fill:#FFFFFF;}
	.st9{clip-path:url(#SVGID_4_);fill-rule:evenodd;clip-rule:evenodd;fill:#88847E;}
	.st10{fill:#0071C0;}
</style>
<g>
	<path class="st2" d="M61.3,3.1c31.7,0,57.5,25.8,57.5,57.5c0,31.7-25.8,57.5-57.5,57.5c-31.7,0-57.5-25.8-57.5-57.5
		C3.7,28.9,29.5,3.1,61.3,3.1z"/>
	<g id="XMLID_20_">
		<path id="XMLID_33_" class="st0" d="M82.6,52.6c0.4-1.8,0.7-3.7,0.7-5.5c0-12.8-10.4-23.3-23.3-23.3c-12.8,0-23.3,10.4-23.3,23.3
			c0,1.9,0.2,3.7,0.7,5.5c0.6,3.8,1.5,6.8,2.5,9.1c2.3,4.8,11.9,20.7,16.3,27.9c-6,0.8-8.7,3.3-8.7,5.7c0,2.9,3.9,6,12.5,6
			s12.5-3.1,12.5-6c0-2.4-2.8-5-8.7-5.7c4.4-7.2,14-23.1,16.3-27.9C81.1,59.4,81.9,56.3,82.6,52.6z M68.8,95.2
			c-0.2,0.7-3.2,2.4-8.9,2.4c-5.7,0-8.7-1.8-8.9-2.4c0.2-0.6,2.6-2,7.3-2.3c0.1,0.1,0.1,0.1,0.1,0.2c0.3,0.5,0.9,0.9,1.5,0.9
			c0.6,0,1.2-0.3,1.5-0.9c0,0,0.1-0.1,0.1-0.2C66.2,93.2,68.6,94.6,68.8,95.2z M79.1,51.8c0,0,0,0.1,0,0.2c-0.6,3.4-1.4,6.2-2.3,8.1
			c-2.3,4.9-12.8,22.2-16.8,28.7c-4-6.5-14.5-23.8-16.8-28.7c-0.9-1.9-1.7-4.7-2.2-8.1c0-0.1,0-0.1,0-0.2c-0.4-1.5-0.6-3.1-0.6-4.7
			c0-10.8,8.8-19.7,19.7-19.7c10.8,0,19.7,8.8,19.7,19.7C79.6,48.6,79.4,50.2,79.1,51.8z"/>
		<path id="XMLID_30_" class="st0" d="M59.9,34c-6.9,0-12.5,5.6-12.5,12.5c0,6.9,5.6,12.5,12.5,12.5c6.9,0,12.5-5.6,12.5-12.5
			C72.4,39.6,66.8,34,59.9,34z M59.9,55.3c-4.9,0-8.9-4-8.9-8.9c0-4.9,4-8.9,8.9-8.9c4.9,0,8.9,4,8.9,8.9
			C68.8,51.4,64.9,55.3,59.9,55.3z"/>
	</g>
</g>
</svg>
