<svg id="Capa_1" data-name="Capa 1" xmlns="http://www.w3.org/2000/svg" viewBox="0 0 150 150"><defs><style>.cls-1{fill:#00519d;}</style></defs><path class="cls-1" d="M85,138.15V80.7h19.2c1-7.68,1.92-15,2.9-22.72H85c0-5.78-.17-11.25,0-16.71.19-4.79,2.89-7.39,7.68-7.91a39,39,0,0,1,3.9-.12c3.13,0,6.26.07,9.37-.09.65,0,1.78-.94,1.79-1.46.13-6.23.08-12.47.08-19.3-6.9-.18-13.58-.79-20.2-.43-13.81.75-23.27,8.56-25.53,21.67-1.18,6.86-.64,14-.87,21,0,1.09,0,2.18,0,3.49H42.12V80.83H61.29v57.32Z"/><path class="cls-1" d="M85,138.15H61.29V80.83H42.12V58.15H61.27c0-1.31,0-2.4,0-3.49.23-7-.31-14.17.87-21C64.4,20.52,73.86,12.71,87.67,12c6.62-.36,13.3.25,20.2.43,0,6.83,0,13.07-.08,19.3,0,.52-1.14,1.43-1.79,1.46-3.11.16-6.24.07-9.37.09a39,39,0,0,0-3.9.12c-4.79.52-7.49,3.12-7.68,7.91C84.83,46.73,85,52.2,85,58h22c-1,7.7-1.92,15-2.9,22.72H85Z"/></svg>