<svg id="Capa_1" data-name="Capa 1" xmlns="http://www.w3.org/2000/svg" viewBox="0 0 150 150"><defs><style>.cls-1{fill:#00519d;}</style></defs><path class="cls-1" d="M138.07,75c0,9.79.35,19.59-.07,29.36-.77,17.46-15.29,32.16-32.7,33.63-1.58.13-3.17.2-4.76.2q-25.7,0-51.37,0c-11,0-20.27-3.81-27.72-11.88A34.15,34.15,0,0,1,11.93,103c-.18-18.66-.28-37.33,0-56,.29-18.92,15.9-34.51,35-35,12.63-.35,25.27-.11,37.91-.11,6.13,0,12.26-.19,18.37.1,18.1.88,32.09,13.73,34.67,31.65a38.11,38.11,0,0,1,.35,5.34c0,8.68,0,17.37,0,26.05ZM75,126.78c9.16,0,18.32,0,27.49,0a23.93,23.93,0,0,0,23.75-20.57,68.74,68.74,0,0,0,.3-9.53q0-24.3,0-48.61A23.85,23.85,0,0,0,103,23.93q-27.84-.34-55.7,0c-13.56.16-23.78,10.85-23.8,24.41q0,27.06,0,54.11A24.15,24.15,0,0,0,48,126.78Z"/><path class="cls-1" d="M107.83,75.37A32.8,32.8,0,1,1,75,42.52,32.79,32.79,0,0,1,107.83,75.37ZM75.35,54.12a21.21,21.21,0,1,0,20.9,21.59A21.25,21.25,0,0,0,75.35,54.12Z"/><path class="cls-1" d="M101.24,41.29a7.67,7.67,0,0,1,15.33,0,7.67,7.67,0,1,1-15.33,0Z"/></svg>