<?xml version="1.0" encoding="utf-8"?>
<!-- Generator: Adobe Illustrator 22.0.0, SVG Export Plug-In . SVG Version: 6.00 Build 0)  -->
<svg version="1.1" id="Capa_1" xmlns="http://www.w3.org/2000/svg" xmlns:xlink="http://www.w3.org/1999/xlink" x="0px" y="0px"
	 viewBox="0 0 121.5 121.5" style="enable-background:new 0 0 121.5 121.5;" xml:space="preserve">
<style type="text/css">
	.st0{fill:#17529B;}
	.st1{fill:#FFFFFF;}
	.st2{fill:none;stroke:#17529B;stroke-width:3;stroke-miterlimit:10;}
	.st3{opacity:0.5;}
	.st4{fill:#0B195D;stroke:#FFFFFF;stroke-miterlimit:10;}
	.st5{fill:#17529B;stroke:#FFFFFF;stroke-miterlimit:10;}
	.st6{fill:none;stroke:#FFFFFF;stroke-miterlimit:10;}
	.st7{clip-path:url(#SVGID_4_);fill-rule:evenodd;clip-rule:evenodd;fill:#195388;}
	.st8{clip-path:url(#SVGID_4_);fill-rule:evenodd;clip-rule:evenodd;fill:#FFFFFF;}
	.st9{clip-path:url(#SVGID_4_);fill-rule:evenodd;clip-rule:evenodd;fill:#88847E;}
	.st10{fill:#0071C0;}
</style>
<g>
	<path class="st0" d="M61,37.8c8,0,9,0,12.1,0.2c2.9,0.1,4.5,0.6,5.6,1c1.4,0.5,2.4,1.2,3.4,2.3c1,1,1.7,2,2.2,3.4
		c0.4,1.1,0.9,2.6,1,5.6c0.1,3.2,0.2,4.1,0.2,12.1c0,8,0,9-0.2,12.1c-0.1,2.9-0.6,4.5-1,5.6c-0.5,1.4-1.2,2.4-2.2,3.4
		c-1.1,1-2,1.7-3.4,2.2c-1.1,0.4-2.7,0.9-5.6,1C69.9,87,69,87,61,87c-8,0-8.9,0-12.1-0.2c-2.9-0.1-4.5-0.6-5.6-1
		c-1.4-0.5-2.4-1.2-3.4-2.2c-1.1-1.1-1.7-2-2.2-3.4c-0.4-1.1-0.9-2.6-1-5.6c-0.1-3.2-0.2-4.1-0.2-12.1c0-8,0-9,0.2-12.1
		c0.1-2.9,0.6-4.5,1-5.6c0.6-1.4,1.2-2.4,2.2-3.4c1.1-1.1,2-1.7,3.4-2.3c1.1-0.4,2.7-0.9,5.6-1C52,37.9,53,37.8,61,37.8 M61,32.4
		c-8.2,0-9.2,0-12.4,0.2c-3.2,0.1-5.4,0.7-7.3,1.4c-2,0.8-3.6,1.8-5.3,3.5c-1.7,1.7-2.7,3.3-3.5,5.3c-0.7,1.9-1.2,4.1-1.4,7.3
		C31,53.3,31,54.3,31,62.4c0,8.1,0,9.2,0.2,12.4c0.1,3.2,0.7,5.4,1.4,7.3c0.8,2,1.8,3.6,3.5,5.3c1.7,1.7,3.3,2.7,5.3,3.5
		c1.9,0.7,4.1,1.3,7.3,1.4c3.2,0.1,4.2,0.2,12.4,0.2c8.2,0,9.2-0.1,12.4-0.2c3.2-0.1,5.4-0.7,7.3-1.4c2-0.8,3.6-1.8,5.3-3.5
		c1.7-1.7,2.7-3.3,3.5-5.3c0.7-1.9,1.2-4.1,1.4-7.3c0.1-3.2,0.2-4.2,0.2-12.4c0-8.1,0-9.2-0.2-12.4c-0.2-3.2-0.7-5.4-1.4-7.3
		c-0.8-2-1.8-3.6-3.5-5.3c-1.7-1.7-3.3-2.7-5.3-3.5c-1.9-0.7-4.1-1.2-7.3-1.4C70.1,32.5,69.1,32.4,61,32.4"/>
	<path class="st0" d="M61,47c-8.5,0-15.4,6.9-15.4,15.4c0,8.5,6.9,15.4,15.4,15.4c8.5,0,15.4-6.9,15.4-15.4C76.4,53.9,69.5,47,61,47
		 M61,72.4c-5.5,0-10-4.5-10-10c0-5.5,4.5-10,10-10c5.5,0,10,4.5,10,10C71,67.9,66.5,72.4,61,72.4"/>
	<path class="st0" d="M80.6,46.4c0,2-1.6,3.6-3.6,3.6c-2,0-3.6-1.6-3.6-3.6c0-2,1.6-3.6,3.6-3.6C79,42.8,80.6,44.4,80.6,46.4"/>
	<path class="st2" d="M61.1,3.1c31.7,0,57.5,25.8,57.5,57.5c0,31.7-25.8,57.5-57.5,57.5c-31.7,0-57.5-25.8-57.5-57.5
		C3.5,29,29.3,3.1,61.1,3.1z"/>
</g>
</svg>
