<?xml version="1.0" encoding="utf-8"?>
<!-- Generator: Adobe Illustrator 22.0.0, SVG Export Plug-In . SVG Version: 6.00 Build 0)  -->
<svg version="1.1" id="Capa_1" xmlns="http://www.w3.org/2000/svg" xmlns:xlink="http://www.w3.org/1999/xlink" x="0px" y="0px"
	 viewBox="0 0 121.5 121.5" style="enable-background:new 0 0 121.5 121.5;" xml:space="preserve">
<style type="text/css">
	.st0{fill:#17529B;}
	.st1{fill:none;stroke:#17529B;stroke-width:3;stroke-miterlimit:10;}
	.st2{opacity:0.5;}
	.st3{fill:#0B195D;stroke:#FFFFFF;stroke-miterlimit:10;}
	.st4{fill:#FFFFFF;}
	.st5{fill:#17529B;stroke:#FFFFFF;stroke-miterlimit:10;}
	.st6{fill:none;stroke:#FFFFFF;stroke-miterlimit:10;}
	.st7{clip-path:url(#SVGID_4_);fill-rule:evenodd;clip-rule:evenodd;fill:#195388;}
	.st8{clip-path:url(#SVGID_4_);fill-rule:evenodd;clip-rule:evenodd;fill:#FFFFFF;}
	.st9{clip-path:url(#SVGID_4_);fill-rule:evenodd;clip-rule:evenodd;fill:#88847E;}
	.st10{fill:#0071C0;}
	.st11{fill:#043868;}
	.st12{opacity:0.8;}
	.st13{clip-path:url(#SVGID_6_);fill-rule:evenodd;clip-rule:evenodd;fill:#195388;}
	.st14{clip-path:url(#SVGID_6_);fill-rule:evenodd;clip-rule:evenodd;fill:#FFFFFF;}
	.st15{clip-path:url(#SVGID_6_);fill-rule:evenodd;clip-rule:evenodd;fill:#88847E;}
</style>
<g>
	<path class="st1" d="M60.6,3.4c31.7,0,57.5,25.8,57.5,57.5c0,31.7-25.8,57.5-57.5,57.5C28.9,118.5,3.1,92.7,3.1,61
		C3.1,29.2,28.9,3.4,60.6,3.4z"/>
</g>
<path class="st0" d="M80,85.5H43c-6.6,0-12-5.4-12-12v-22c0-6.6,5.4-12,12-12h37c6.6,0,12,5.4,12,12v22C92,80.1,86.6,85.5,80,85.5z"
	/>
<g>
	<path class="st4" d="M55.3,50.9c0,1.7-1.4,2.8-3.4,2.8c-1.8,0-3.2-1.2-3.2-2.8c0-1.8,1.5-2.8,3.3-2.8C53.9,48,55.3,49.1,55.3,50.9z
		 M48.9,75.5V56.1h6.4v19.5H48.9z"/>
	<path class="st4" d="M59.8,61.9c0-2.2-0.1-4-0.2-5.9h5.5l0.3,2.2h0.1c1.3-1.6,3.3-2.5,5.8-2.5c4.6,0,6.4,2.9,6.4,7.3v12.5h-6.4
		V63.3c0-1.7-0.5-3.2-2.3-3.2c-1.1,0-2,0.6-2.4,1.8c-0.2,0.4-0.3,1-0.3,1.8v11.9h-6.4V61.9z"/>
</g>
</svg>
