<svg id="Capa_1" data-name="Capa 1" xmlns="http://www.w3.org/2000/svg" viewBox="0 0 150 150"><defs><style>.cls-1{fill:#00519d;}</style></defs><path class="cls-1" d="M56.51,53.7c0,.83-.09,1.34-.09,1.84q0,40.13,0,80.24c0,1.7.65,2,2.12,2,7.31,0,14.62-.08,21.93,0,1.78,0,2.22-.55,2.21-2.28q-.11-19.25,0-38.5a59.78,59.78,0,0,1,.77-9.64c1-5.71,3.57-10.37,9.73-11.82A21.78,21.78,0,0,1,99.72,75c4.22.33,7.59,2.17,9.47,6.25a26,26,0,0,1,2.11,10.91c.08,14.36,0,28.72,0,43.08v2.29c1,0,1.64.1,2.32.1,7.26,0,14.52-.08,21.78,0,1.92,0,2.43-.48,2.41-2.41-.17-15.68-.24-31.37-.29-47.05a60.84,60.84,0,0,0-2.39-17.81c-1.95-6.33-5.4-11.58-11.33-14.9A29.33,29.33,0,0,0,111.93,52c-5.51-.47-11-.47-16.31,1.58A26.29,26.29,0,0,0,81.74,65.06c0-3.43,0-6.48,0-9.53,0-1.4-.43-1.87-1.86-1.86-6.36.07-12.71,0-19.07,0ZM14.1,95.57q0,20.1,0,40.21c0,1.33.25,1.86,1.78,1.84q11.45-.13,22.89,0c1.46,0,1.84-.42,1.84-1.81q0-40.11,0-80.22c0-1.51-.49-1.94-2-1.93-7.36.07-14.74.1-22.1,0-2,0-2.46.55-2.45,2.47C14.13,69.27,14.1,82.42,14.1,95.57ZM12.18,27.51a14.81,14.81,0,0,0,15,15.18A15,15,0,0,0,42.54,27.45a15.33,15.33,0,0,0-15-15.22A15.13,15.13,0,0,0,12.18,27.51Z"/><path class="cls-1" d="M56.51,53.7h4.33c6.36,0,12.71,0,19.07,0,1.43,0,1.89.46,1.86,1.86-.08,3,0,6.1,0,9.53A26.29,26.29,0,0,1,95.62,53.54c5.31-2,10.8-2,16.31-1.58a29.33,29.33,0,0,1,11.91,3.52c5.93,3.32,9.38,8.57,11.33,14.9a60.84,60.84,0,0,1,2.39,17.81c.05,15.68.12,31.37.29,47.05,0,1.93-.49,2.44-2.41,2.41-7.26-.11-14.52,0-21.78,0-.68,0-1.36-.05-2.32-.1v-2.29c0-14.36,0-28.72,0-43.08a26,26,0,0,0-2.11-10.91c-1.88-4.08-5.25-5.92-9.47-6.25a21.78,21.78,0,0,0-6.58.54C87,77,84.39,81.64,83.41,87.35A59.78,59.78,0,0,0,82.64,97q-.14,19.26,0,38.5c0,1.73-.43,2.3-2.21,2.28-7.31-.09-14.62-.06-21.93,0-1.47,0-2.12-.28-2.12-2q.07-40.12,0-80.24C56.42,55,56.47,54.53,56.51,53.7Z"/><path class="cls-1" d="M14.1,95.57c0-13.15,0-26.3,0-39.44,0-1.92.49-2.5,2.45-2.47,7.36.11,14.74.08,22.1,0,1.49,0,2,.42,2,1.93q0,40.11,0,80.22c0,1.39-.38,1.82-1.84,1.81q-11.45-.13-22.89,0c-1.53,0-1.78-.51-1.78-1.84Q14.13,115.67,14.1,95.57Z"/><path class="cls-1" d="M12.18,27.51A15.13,15.13,0,0,1,27.5,12.23a15.33,15.33,0,0,1,15,15.22A15,15,0,0,1,27.13,42.69,14.81,14.81,0,0,1,12.18,27.51Z"/></svg>