<svg id="Capa_1" data-name="Capa 1" xmlns="http://www.w3.org/2000/svg" viewBox="0 0 150 150"><defs><style>.cls-1{fill:#00519d;}</style></defs><path class="cls-1" d="M75,11.5A62.28,62.28,0,0,0,12.79,73.7c0,13.43,5.45,25.48,7.79,30a4.32,4.32,0,1,0,7.69-3.95c-2.05-4-6.83-14.55-6.83-26.09A53.56,53.56,0,1,1,75,127.27a55.53,55.53,0,0,1-24.14-5.72,4.3,4.3,0,0,0-3.26-.26L20.37,130A4.32,4.32,0,1,0,23,138.22l25.58-8.17A63.76,63.76,0,0,0,75,135.91,62.21,62.21,0,1,0,75,11.5Zm0,0"/><path class="cls-1" d="M62.73,63.1A4.32,4.32,0,0,0,68,70c1.32-1,4.84-3.72,4.33-8.55-.32-2.88-3.12-6.82-5.42-9.62-3.36-4.1-6.2-6.53-8.44-7.21a9.34,9.34,0,0,0-6.37.3c-4.41,1.76-7.51,4.67-9,8.43a14.69,14.69,0,0,0,.76,11.83A77.66,77.66,0,0,0,61.79,89.58l.09.08A77.6,77.6,0,0,0,88.2,104.81a17,17,0,0,0,5.53,1,13.37,13.37,0,0,0,6.31-1.53c3.57-1.88,6.12-5.29,7.38-9.86A9.32,9.32,0,0,0,107,88c-.94-2.16-3.66-4.72-8.11-7.61-3-2-7.26-4.32-10.16-4.32h0c-4.84,0-7.14,3.81-8,5.25a4.32,4.32,0,0,0,7.39,4.48,8.43,8.43,0,0,1,.7-1c2.44.71,9,5,10.31,6.78a1.13,1.13,0,0,1,0,.51A7.11,7.11,0,0,1,96,96.61a6.51,6.51,0,0,1-5,0A69.2,69.2,0,0,1,67.64,83.22h0a68.88,68.88,0,0,1-16-21.77,6.48,6.48,0,0,1-.52-5c.73-1.87,2.66-3,4.14-3.56a1,1,0,0,1,.5-.1c1.94,1.13,6.9,7.15,7.87,9.49a7.28,7.28,0,0,1-.94.81Zm0,0"/></svg>