<?xml version="1.0" encoding="utf-8"?>
<!-- Generator: Adobe Illustrator 22.0.0, SVG Export Plug-In . SVG Version: 6.00 Build 0)  -->
<svg version="1.1" id="Capa_1" xmlns="http://www.w3.org/2000/svg" xmlns:xlink="http://www.w3.org/1999/xlink" x="0px" y="0px"
	 viewBox="0 0 121.5 121.5" style="enable-background:new 0 0 121.5 121.5;" xml:space="preserve">
<style type="text/css">
	.st0{fill:#17529B;}
	.st1{fill:#FFFFFF;}
	.st2{fill:none;stroke:#17529B;stroke-width:3;stroke-miterlimit:10;}
	.st3{opacity:0.5;}
	.st4{fill:#0B195D;stroke:#FFFFFF;stroke-miterlimit:10;}
	.st5{fill:#17529B;stroke:#FFFFFF;stroke-miterlimit:10;}
	.st6{fill:none;stroke:#FFFFFF;stroke-miterlimit:10;}
	.st7{clip-path:url(#SVGID_4_);fill-rule:evenodd;clip-rule:evenodd;fill:#195388;}
	.st8{clip-path:url(#SVGID_4_);fill-rule:evenodd;clip-rule:evenodd;fill:#FFFFFF;}
	.st9{clip-path:url(#SVGID_4_);fill-rule:evenodd;clip-rule:evenodd;fill:#88847E;}
	.st10{fill:#0071C0;}
</style>
<g>
	<path class="st2" d="M61.2,4.3c31.7,0,57.5,25.8,57.5,57.5c0,31.7-25.8,57.5-57.5,57.5c-31.7,0-57.5-25.8-57.5-57.5
		C3.6,30.1,29.5,4.3,61.2,4.3z"/>
	<g>
		<path id="XMLID_24_" class="st0" d="M91.4,61.6c0-17.3-14.1-31.4-31.4-31.4c-1.5,0-2.8,1.2-2.8,2.7c0,1.5,1.2,2.7,2.8,2.7
			c14.3,0,25.9,11.6,25.9,25.9c0,1.5,1.2,2.7,2.8,2.7C90.2,64.3,91.4,63.1,91.4,61.6z M88.7,63c-0.8,0-1.4-0.6-1.4-1.4
			c0-15-12.2-27.2-27.2-27.2c-0.8,0-1.4-0.6-1.4-1.4c0-0.8,0.6-1.4,1.4-1.4c16.6,0,30,13.5,30,30.1C90.1,62.4,89.4,63,88.7,63z"/>
		<path id="XMLID_21_" class="st0" d="M59.7,40.4c-1.5,0-2.7,1.2-2.7,2.7c0,1.5,1.2,2.8,2.7,2.8c8.8,0,16,7.2,16,16
			c0,1.5,1.2,2.7,2.8,2.7c1.5,0,2.7-1.2,2.7-2.7C81.2,50.1,71.6,40.4,59.7,40.4z M78.4,63.3c-0.8,0-1.4-0.6-1.4-1.4
			c0-9.5-7.8-17.3-17.3-17.3c-0.8,0-1.4-0.6-1.4-1.4c0-0.8,0.6-1.4,1.4-1.4c11.1,0,20.2,9,20.2,20.2C79.9,62.7,79.2,63.3,78.4,63.3z
			"/>
		<path id="XMLID_27_" class="st0" d="M29.5,42.9c-0.3,0.3-0.5,0.6-0.8,0.9c-2.1,1.9-3.9,6.1-2.9,11.3C30.2,77.5,49,94.5,71.7,96.6
			c0.5,0,1,0.1,1.5,0.1c2.6,0,5.1-0.6,7-1.9c0.9-0.6,1.8-1.2,2.5-2l1.9-2.2c3.8-4.2,3.5-10.7-0.7-14.5l-3.3-3
			c-1.9-1.7-4.3-2.7-6.9-2.7c-2.9,0-5.7,1.2-7.6,3.4L64.1,76c-0.8,0.8-1.4,1.8-1.8,2.8c-7.8-3.3-14.1-9.1-18.1-16.5
			c1.4-0.6,2.7-1.5,3.8-2.6l1.9-2.2c1.8-2,2.8-4.7,2.6-7.4c-0.1-2.7-1.3-5.3-3.4-7.1l-3.3-3c-1.9-1.7-4.3-2.7-6.9-2.7
			c-2.9,0-5.7,1.2-7.6,3.4L29.5,42.9z M33.4,42.5c1.4-1.6,3.5-2.5,5.7-2.5c1.9,0,3.7,0.7,5.1,2l3.3,3c1.5,1.4,2.4,3.2,2.5,5.3
			c0.1,2-0.6,4-2,5.5l-2,2.1l0,0c-0.9,1-2.1,1.8-3.4,2.2L42,60.3c-0.4,0.1-0.7,0.4-0.8,0.7c-0.2,0.4-0.1,0.8,0,1.1l0.3,0.6
			c4.3,8.7,11.6,15.4,20.6,18.9l0.5,0.2c0.3,0.1,0.7,0.1,1,0c0.3-0.2,0.6-0.4,0.7-0.8l0.2-0.5c0.3-1,0.9-1.9,1.6-2.7l1.9-2.2
			c1.4-1.6,3.5-2.5,5.7-2.5c1.9,0,3.7,0.7,5.1,2l3.3,3c3.1,2.8,3.4,7.7,0.5,10.8l-2,2.2c-0.5,0.6-1.2,1.1-1.9,1.5
			c-1.9,1.2-4.3,1.7-6.9,1.4C50.4,92,32.5,75.9,28.4,54.6c-0.9-4.4,0.8-7.7,2.1-8.8c0,0,0.1-0.1,0.1-0.1l0.1-0.1
			c0,0,0.1-0.1,0.1-0.1c0.2-0.3,0.4-0.5,0.6-0.8L33.4,42.5z"/>
	</g>
</g>
</svg>
