<svg id="Capa_1" data-name="Capa 1" xmlns="http://www.w3.org/2000/svg" viewBox="0 0 150 150"><defs><style>.cls-1{fill:#00519d;}</style></defs><path class="cls-1" d="M78.09,12v2.43c0,27.35,0,54.7,0,82.05A19.76,19.76,0,0,1,60,115.93a20,20,0,0,1-21.23-15.55A19.71,19.71,0,0,1,51.94,77.2a31.53,31.53,0,0,1,7.2-1c2.22-.17,4.46,0,6.69,0v-22c-2.55,0-5,0-7.4,0A41.32,41.32,0,0,0,26.57,68.45a41.91,41.91,0,0,0-2.46,52.17C35.4,136.33,56.37,142.53,74,134.88c16.74-7.25,25.62-20.35,26.08-38.57.41-16,.09-32.12.1-48.17V45.78c8.41,8.28,18.26,12.16,29.45,13.66l4.16-21.14c-1.16-.23-2.1-.47-3-.61a33.69,33.69,0,0,1-16-7.15A52.09,52.09,0,0,1,101,13.41a2.47,2.47,0,0,0-2.53-1.56c-6.17.07-12.34,0-18.5,0C79.38,11.89,78.85,12,78.09,12Z"/><path class="cls-1" d="M78.09,12c.76,0,1.29-.1,1.83-.1,6.16,0,12.33,0,18.5,0A2.47,2.47,0,0,1,101,13.41a52.09,52.09,0,0,0,13.79,17.13,33.69,33.69,0,0,0,16,7.15c.95.14,1.89.38,3,.61l-4.16,21.14c-11.19-1.5-21-5.38-29.45-13.66v2.36c0,16,.31,32.12-.1,48.17-.46,18.22-9.34,31.32-26.08,38.57-17.66,7.65-38.63,1.45-49.92-14.26a41.91,41.91,0,0,1,2.46-52.17A41.32,41.32,0,0,1,58.43,54.07c2.43,0,4.85,0,7.4,0v22c-2.23,0-4.47-.13-6.69,0a31.53,31.53,0,0,0-7.2,1,19.71,19.71,0,0,0-13.21,23.18A20,20,0,0,0,60,115.93,19.76,19.76,0,0,0,78.05,96.47c.09-27.35,0-54.7,0-82Z"/></svg>