<?xml version="1.0" encoding="utf-8"?>
<!-- Generator: Adobe Illustrator 22.0.0, SVG Export Plug-In . SVG Version: 6.00 Build 0)  -->
<svg version="1.1" id="Capa_1" xmlns="http://www.w3.org/2000/svg" xmlns:xlink="http://www.w3.org/1999/xlink" x="0px" y="0px"
	 viewBox="0 0 121.5 121.5" style="enable-background:new 0 0 121.5 121.5;" xml:space="preserve">
<style type="text/css">
	.st0{fill:#17529B;}
	.st1{fill:#FFFFFF;}
	.st2{fill:none;stroke:#17529B;stroke-width:3;stroke-miterlimit:10;}
	.st3{opacity:0.5;}
	.st4{fill:#0B195D;stroke:#FFFFFF;stroke-miterlimit:10;}
	.st5{fill:#17529B;stroke:#FFFFFF;stroke-miterlimit:10;}
	.st6{fill:none;stroke:#FFFFFF;stroke-miterlimit:10;}
	.st7{clip-path:url(#SVGID_4_);fill-rule:evenodd;clip-rule:evenodd;fill:#195388;}
	.st8{clip-path:url(#SVGID_4_);fill-rule:evenodd;clip-rule:evenodd;fill:#FFFFFF;}
	.st9{clip-path:url(#SVGID_4_);fill-rule:evenodd;clip-rule:evenodd;fill:#88847E;}
	.st10{fill:#0071C0;}
</style>
<g>
	<path class="st0" d="M35.7,81c5.1,3.3,11.1,5.1,17.6,5.1c21.3,0,33.3-18,32.6-34.1c2.2-1.6,4.2-3.6,5.7-5.9
		c-2.1,0.9-4.3,1.5-6.6,1.8c2.4-1.4,4.2-3.7,5-6.3c-2.2,1.3-4.7,2.3-7.3,2.8c-2.1-2.2-5.1-3.6-8.4-3.6c-7.4,0-12.8,6.9-11.2,14.1
		c-9.5-0.5-18-5-23.6-12c-3,5.2-1.6,11.9,3.5,15.3c-1.9-0.1-3.6-0.6-5.2-1.4c-0.1,5.3,3.7,10.3,9.2,11.4c-1.6,0.4-3.4,0.5-5.2,0.2
		c1.5,4.6,5.7,7.9,10.7,8C47.8,80.1,41.8,81.8,35.7,81"/>
	<path class="st2" d="M60.6,4.4c31.7,0,57.5,25.8,57.5,57.5c0,31.7-25.8,57.5-57.5,57.5C28.9,119.5,3.1,93.7,3.1,62
		C3.1,30.2,28.9,4.4,60.6,4.4z"/>
</g>
</svg>
