<svg id="Capa_1" data-name="Capa 1" xmlns="http://www.w3.org/2000/svg" viewBox="0 0 150 150"><defs><style>.cls-1{fill:#00519d;}</style></defs><path class="cls-1" d="M136.45,138.08c-12,0-23.19.07-34.38-.11-1.16,0-2.61-1.34-3.37-2.43-10.17-14.63-20.23-29.32-30.32-44-.61-.89-1.25-1.75-2.09-2.91-5.09,5.91-10.05,11.63-15,17.37-8.57,10-17.06,20-25.75,29.88-1,1.18-3,1.8-4.68,2.08-2.09.35-4.29.08-7.33.08L61.74,81.9,13.8,12.21c1.21-.12,2-.26,2.8-.26,10.22,0,20.44-.1,30.66.06a5.54,5.54,0,0,1,3.85,2.09c9.54,13.6,18.93,27.31,28.36,41,.73,1.06,1.48,2.09,2.4,3.37C87.6,51.81,93.13,45.41,98.65,39c7.22-8.4,14.39-16.86,21.71-25.18A6.47,6.47,0,0,1,124.17,12a69.1,69.1,0,0,1,7.88-.08c-2.41,2.89-4.41,5.35-6.47,7.76Q106.86,41.43,88.09,63.13c-1.44,1.65-1.29,2.66-.09,4.4q23,33.21,45.83,66.55C134.61,135.21,135.33,136.37,136.45,138.08ZM28.87,19.91c25.22,36.66,50,72.62,74.73,108.56.46.66,1.25,1.53,1.91,1.54,5,.13,10.06.07,15.65.07-1-1.6-1.65-2.59-2.31-3.55Q107,109.35,95.19,92.19q-24-34.89-48-69.78c-.68-1-1.77-2.34-2.73-2.39C39.49,19.78,34.52,19.91,28.87,19.91Z"/></svg>