<?xml version="1.0" encoding="utf-8"?>
<!-- Generator: Adobe Illustrator 26.3.1, SVG Export Plug-In . SVG Version: 6.00 Build 0)  -->
<svg version="1.1" id="svg5" xmlns:svg="http://www.w3.org/2000/svg"
	 xmlns="http://www.w3.org/2000/svg" xmlns:xlink="http://www.w3.org/1999/xlink" x="0px" y="0px" viewBox="0 0 1007.33 1006"
	 style="enable-background:new 0 0 1007.33 1006;" xml:space="preserve">
<style type="text/css">
	.st0{fill:#17529B;}
</style>
<g>
	<path class="st0" d="M504.03,999.04c-66.86,0-131.73-13.1-192.81-38.93c-58.99-24.95-111.96-60.66-157.44-106.15
		S72.57,755.5,47.63,696.51C21.79,635.44,8.69,570.56,8.69,503.7s13.1-131.73,38.93-192.81c24.95-58.99,60.66-111.96,106.15-157.44
		c45.49-45.49,98.46-81.2,157.44-106.15C372.29,21.47,437.16,8.37,504.03,8.37s131.73,13.1,192.81,38.93
		c58.99,24.95,111.96,60.66,157.44,106.15c45.49,45.49,81.2,98.46,106.15,157.44c25.83,61.08,38.93,125.95,38.93,192.81
		s-13.1,131.73-38.93,192.81c-24.95,58.99-60.66,111.96-106.15,157.44s-98.46,81.2-157.44,106.15
		C635.76,985.94,570.89,999.04,504.03,999.04z M504.03,36.37c-257.69,0-467.33,209.64-467.33,467.33s209.64,467.33,467.33,467.33
		S971.36,761.39,971.36,503.7S761.72,36.37,504.03,36.37z"/>
</g>
<g id="layer1" transform="translate(52.390088,-25.058597)">
	<path id="path1009" class="st0" d="M155.14,249.89l230.07,307.62L153.69,807.63h52.11l202.7-218.98l163.77,218.98h177.32
		L506.57,482.7l215.5-232.81h-52.11L483.28,451.56L332.45,249.89H155.14z M231.77,288.28h81.46l359.72,480.97h-81.46L231.77,288.28z
		"/>
</g>
</svg>
