<?xml version="1.0" encoding="utf-8"?>
<!-- Generator: Adobe Illustrator 22.0.0, SVG Export Plug-In . SVG Version: 6.00 Build 0)  -->
<svg version="1.1" id="Capa_1" xmlns="http://www.w3.org/2000/svg" xmlns:xlink="http://www.w3.org/1999/xlink" x="0px" y="0px"
	 viewBox="0 0 121.5 121.5" style="enable-background:new 0 0 121.5 121.5;" xml:space="preserve">
<style type="text/css">
	.st0{fill:#17529B;}
	.st1{fill:#FFFFFF;}
	.st2{fill:none;stroke:#17529B;stroke-width:3;stroke-miterlimit:10;}
	.st3{opacity:0.5;}
	.st4{fill:#0B195D;stroke:#FFFFFF;stroke-miterlimit:10;}
	.st5{fill:#17529B;stroke:#FFFFFF;stroke-miterlimit:10;}
	.st6{fill:none;stroke:#FFFFFF;stroke-miterlimit:10;}
	.st7{clip-path:url(#SVGID_4_);fill-rule:evenodd;clip-rule:evenodd;fill:#195388;}
	.st8{clip-path:url(#SVGID_4_);fill-rule:evenodd;clip-rule:evenodd;fill:#FFFFFF;}
	.st9{clip-path:url(#SVGID_4_);fill-rule:evenodd;clip-rule:evenodd;fill:#88847E;}
	.st10{fill:#0071C0;}
</style>
<g>
	<path class="st2" d="M61.1,4.4c31.7,0,57.5,25.8,57.5,57.5c0,31.7-25.8,57.5-57.5,57.5C29.4,119.5,3.6,93.7,3.6,62
		C3.6,30.2,29.4,4.4,61.1,4.4z"/>
</g>
<path class="st0" d="M80.5,86.5h-37c-6.6,0-12-5.4-12-12v-22c0-6.6,5.4-12,12-12h37c6.6,0,12,5.4,12,12v22
	C92.5,81.1,87.1,86.5,80.5,86.5z"/>
<polygon class="st1" points="54.5,55.5 54.5,72.5 72.5,64.5 "/>
</svg>
