<svg id="Capa_1" data-name="Capa 1" xmlns="http://www.w3.org/2000/svg" viewBox="0 0 150 150"><defs><style>.cls-1{fill:#00519d;}</style></defs><path class="cls-1" d="M75.06,123.69c-17.3-.45-34.54-.83-51.78-1.35a17.24,17.24,0,0,1-16.66-16c-1.14-18-1.68-35.93-.45-53.91.21-3.09.18-6.2.47-9.28A17.46,17.46,0,0,1,23.86,27.34c19.46-.37,38.93-1,58.39-1,14.88,0,29.77.64,44.65,1,8.09.22,15.83,7.15,16.35,15.2.94,14.71,1.75,29.45,1,44.22-.35,6.59-.44,13.19-.9,19.77a17.21,17.21,0,0,1-16.39,15.78C109.62,122.86,92.31,123.24,75.06,123.69ZM61.7,52.91V96.82l35.46-22Z"/></svg>