<svg xmlns="http://www.w3.org/2000/svg" viewBox="0 0 755.49 427.59"><defs><style>.cls-1{opacity:0.15;}.cls-2{fill:#00519d;}</style></defs><title>MISION</title><g id="Capa_3" data-name="Capa 3"><g class="cls-1"><path class="cls-2" d="M353.22,415.24c7.43-.55,14.56-.77,21.61-1.63a173.77,173.77,0,0,0,92.81-40.43A177.28,177.28,0,0,0,527,202.65a174.35,174.35,0,0,0-18.35-50.06c-2.32-4.19-6.39-4.73-9.73-1.39l-15.51,15.51c-3.11,3.12-3.38,4.79-1.44,8.82a142.16,142.16,0,0,1,13.56,48.36c2.52,26.29-1.3,51.66-13.14,75.24-25,49.75-65.63,77-121.14,81.23-24.67,1.89-48.33-3.24-70.56-14.21-57.24-28.27-89-89.93-77.7-152.58,8.79-48.75,36.25-84,80.95-105.36,22.67-10.85,46.83-14.6,71.84-12.52a140.94,140.94,0,0,1,50.07,13.74c4.1,2,5.71,1.69,9-1.55,5-5,10.1-10,15.12-15.09,3.71-3.73,3.15-7.73-1.45-10.21C400.18,62,359.63,55.84,317.18,64.74,268.54,74.93,230.75,101.56,204,143.25c-23,35.85-31.19,75.34-26,117.56,3.4,27.6,12.78,53.11,28.67,75.91C242.21,387.74,291.66,413.08,353.22,415.24Zm-1.63-283.77c-2.28.17-6.61.36-10.89.84A98.86,98.86,0,0,0,330.56,134,106.35,106.35,0,0,0,363.09,343.8c27.25-2.55,50.61-13.67,68.84-34.16,26.31-29.58,33.75-63.88,23.49-102-1.46-5.46-6.29-6.64-10.28-2.66-6,6-12,12.08-18.07,18.07a6.34,6.34,0,0,0-2,5.66,73.23,73.23,0,0,1-2,28.34c-9.7,35.93-45.35,58.41-82.37,51.93-48.71-8.54-74.59-63.05-50.41-106.17,14.51-25.89,42.16-39.87,72.26-36.5a6.44,6.44,0,0,0,5.71-1.89c6.1-6.13,12.23-12.22,18.32-18.36,3.7-3.73,2.44-8.52-2.57-10C374.14,133,364,131.6,351.59,131.47Zm161.29-15.12a33.27,33.27,0,0,0,23.75-10.06Q557,86,577.35,65.59a4.49,4.49,0,0,0,1.39-5c-.74-2-2.32-2.83-4.47-2.89-10-.29-20.07-.67-30.11-1-6.06-.19-9.32-3.47-9.51-9.53-.3-10-.68-19.95-1-29.93-.06-2.09-.69-3.75-2.74-4.56s-3.78-.07-5.3,1.46C512.43,27.39,499.26,40.65,486,53.79c-7.4,7.33-11.15,16-11,26.47a21.7,21.7,0,0,1-6.77,16.24Q416,148.75,363.76,201a21.37,21.37,0,0,1-13.32,6.32,30.75,30.75,0,1,0,33.61,33.55,21.08,21.08,0,0,1,6.21-13.17Q442,176,493.65,124.27C499.05,118.84,505.21,115.93,512.88,116.35Z"/><path class="cls-2" d="M353.22,415.24c-61.56-2.16-111-27.5-146.58-78.52-15.89-22.8-25.27-48.31-28.67-75.91-5.2-42.22,2.95-81.71,26-117.56,26.79-41.69,64.58-68.32,113.22-78.51,42.45-8.9,83-2.75,121.26,17.84,4.6,2.48,5.16,6.48,1.45,10.21-5,5-10.08,10.06-15.12,15.09-3.25,3.24-4.86,3.53-9,1.55a140.94,140.94,0,0,0-50.07-13.74c-25-2.08-49.17,1.67-71.84,12.52-44.7,21.38-72.16,56.61-80.95,105.36-11.31,62.65,20.46,124.31,77.7,152.58,22.23,11,45.89,16.1,70.56,14.21,55.51-4.24,96.15-31.48,121.14-81.23,11.84-23.58,15.66-48.95,13.14-75.24a142.16,142.16,0,0,0-13.56-48.36c-1.94-4-1.67-5.7,1.44-8.82l15.51-15.51c3.34-3.34,7.41-2.8,9.73,1.39A174.35,174.35,0,0,1,527,202.65a177.28,177.28,0,0,1-59.32,170.53,173.77,173.77,0,0,1-92.81,40.43C367.78,414.47,360.65,414.69,353.22,415.24Z"/><path class="cls-2" d="M351.59,131.47c12.39.13,22.55,1.53,32.47,4.52,5,1.51,6.27,6.3,2.57,10-6.09,6.14-12.22,12.23-18.32,18.36a6.44,6.44,0,0,1-5.71,1.89c-30.1-3.37-57.75,10.61-72.26,36.5-24.18,43.12,1.7,97.63,50.41,106.17,37,6.48,72.67-16,82.37-51.93a73.23,73.23,0,0,0,2-28.34,6.34,6.34,0,0,1,2-5.66c6.05-6,12-12,18.07-18.07,4-4,8.82-2.8,10.28,2.66,10.26,38.16,2.82,72.46-23.49,102-18.23,20.49-41.59,31.61-68.84,34.16A106.35,106.35,0,0,1,330.56,134a98.86,98.86,0,0,1,10.14-1.71C345,131.83,349.31,131.64,351.59,131.47Z"/><path class="cls-2" d="M512.88,116.35c-7.67-.42-13.83,2.49-19.23,7.92q-51.6,51.81-103.39,103.44a21.08,21.08,0,0,0-6.21,13.17,30.74,30.74,0,1,1-33.61-33.55A21.37,21.37,0,0,0,363.76,201Q416,148.74,468.25,96.5A21.7,21.7,0,0,0,475,80.26c-.2-10.47,3.55-19.14,11-26.47,13.29-13.14,26.46-26.4,39.66-39.63,1.52-1.53,3.2-2.29,5.3-1.46s2.68,2.47,2.74,4.56c.3,10,.68,20,1,29.93.19,6.06,3.45,9.34,9.51,9.53,10,.31,20.07.69,30.11,1,2.15.06,3.73.87,4.47,2.89a4.49,4.49,0,0,1-1.39,5Q557,85.92,536.63,106.29A33.27,33.27,0,0,1,512.88,116.35Z"/></g></g></svg>